HIERARCHY
ROOT Hips
{
	OFFSET -3.958830 18.904000 13.208200
	CHANNELS 6 Xposition Yposition Zposition Zrotation Yrotation Xrotation 
	JOINT LHipJoint
	{
		OFFSET 0.000000 0.000000 0.000000
		CHANNELS 3 Zrotation Yrotation Xrotation
		JOINT LeftUpLeg
		{
			OFFSET 1.800000 -1.400000 0.085000
			CHANNELS 3 Zrotation Yrotation Xrotation
			JOINT LeftLeg
			{
				OFFSET 2.215000 -6.000000 0.000000
				CHANNELS 3 Zrotation Yrotation Xrotation
				JOINT LeftFoot
				{
					OFFSET 2.500000 -6.900000 0.000000
					CHANNELS 3 Zrotation Yrotation Xrotation
					JOINT LeftToeBase
					{
						OFFSET 0.200000 -0.500000 1.950000
						CHANNELS 3 Zrotation Yrotation Xrotation
						End Site
						{
							OFFSET 0.000000 0.000000 0.000000
						}
					}
				}
			}
		}
	}
	JOINT RHipJoint
	{
		OFFSET 0.000000 0.000000 0.000000
		CHANNELS 3 Zrotation Yrotation Xrotation
		JOINT RightUpLeg
		{
			OFFSET -1.800000 -1.400000 0.085000
			CHANNELS 3 Zrotation Yrotation Xrotation
			JOINT RightLeg
			{
				OFFSET -2.215000 -6.000000 0.000000
				CHANNELS 3 Zrotation Yrotation Xrotation
				JOINT RightFoot
				{
					OFFSET -2.500000 -6.900000 0.000000
					CHANNELS 3 Zrotation Yrotation Xrotation
					JOINT RightToeBase
					{
						OFFSET -0.200000 -0.500000 1.950000
						CHANNELS 3 Zrotation Yrotation Xrotation
						End Site
						{
							OFFSET 0.000000 0.000000 0.000000
						}
					}
				}
			}
		}
	}
	JOINT LowerBack
	{
		OFFSET 0.000000 0.000000 0.000000
		CHANNELS 3 Zrotation Yrotation Xrotation
		JOINT Spine
		{
			OFFSET -0.087000 1.940000 -0.288900
			CHANNELS 3 Zrotation Yrotation Xrotation
			JOINT Spine1
			{
				OFFSET 0.000000 1.950000 0.060000
				CHANNELS 3 Zrotation Yrotation Xrotation
				JOINT Neck
				{
					OFFSET 0.000000 0.000000 0.000000
					CHANNELS 3 Zrotation Yrotation Xrotation
					JOINT Neck1
					{
						OFFSET 0.000000 1.600000 0.340000
						CHANNELS 3 Zrotation Yrotation Xrotation
						JOINT Head
						{
							OFFSET 0.000000 1.667000 -0.240000
							CHANNELS 3 Zrotation Yrotation Xrotation
							End Site
							{
								OFFSET 0.000000 0.000000 0.000000
							}
						}
					}
				}
				JOINT LeftShoulder
				{
					OFFSET 0.000000 0.000000 0.000000
					CHANNELS 3 Zrotation Yrotation Xrotation
					JOINT LeftArm
					{
						OFFSET 2.700000 1.550000 -0.730000
						CHANNELS 3 Zrotation Yrotation Xrotation
						JOINT LeftForeArm
						{
							OFFSET 5.450000 0.000000 0.000000
							CHANNELS 3 Zrotation Yrotation Xrotation
							JOINT LeftHand
							{
								OFFSET 3.450000 0.000000 0.000000
								CHANNELS 3 Zrotation Yrotation Xrotation
								JOINT LeftHandIndex1
								{
									OFFSET 0.750000 0.000000 0.000000
									CHANNELS 3 Zrotation Yrotation Xrotation
									End Site
									{
										OFFSET 0.000000 0.000000 0.000000
									}
								}
							}
						}
					}
				}
				JOINT RightShoulder
				{
					OFFSET 0.000000 0.000000 0.000000
					CHANNELS 3 Zrotation Yrotation Xrotation
					JOINT RightArm
					{
						OFFSET -2.700000 1.550000 -0.730000
						CHANNELS 3 Zrotation Yrotation Xrotation
						JOINT RightForeArm
						{
							OFFSET -5.450000 0.000000 0.000000
							CHANNELS 3 Zrotation Yrotation Xrotation
							JOINT RightHand
							{
								OFFSET -3.450000 0.000000 0.000000
								CHANNELS 3 Zrotation Yrotation Xrotation
								JOINT RightHandIndex1
								{
									OFFSET -0.750000 0.000000 0.000000
									CHANNELS 3 Zrotation Yrotation Xrotation
									End Site
									{
										OFFSET 0.000000 0.000000 0.000000
									}
								}
							}
						}
					}
				}
			}
		}
	}
}
MOTION
Frames: 8
Frame Time: 0.016667
0.866510 15.870760 -2.645750 -1.300706 -10.189297 -2.776340 -15.394155 12.219020 3.722774 -11.374534 -4.331477 -3.549552 -17.200448 16.760987 42.725638 1.356399 9.904847 1.301261 0.743380 0.112920 0.781650 18.392996 -8.028783 4.824345 -12.071112 8.675148 -41.922698 35.885202 -21.883278 39.078634 -1.745762 -9.191060 1.255330 -0.150580 -0.191130 0.530320 -3.498402 -3.790357 -9.212596 23.323728 -7.747738 32.125922 1.664566 -4.047289 10.754681 3.147225 -0.955506 -16.482740 -6.647582 3.387592 54.058957 -5.663460 4.841160 -3.927670 -4.976356 -15.904315 10.635349 -11.538853 5.059263 -1.604292 -143.796251 -53.137275 98.510804 -3.307020 3.965207 0.706450 -0.077550 0.235720 0.175350 -1.050204 16.215970 9.814325 19.400062 -1.667154 -9.652033 136.189022 55.310193 83.558530 2.244862 -2.000055 0.169900 -0.343520 -0.300300 -0.324430 
0.884580 15.823290 -2.608350 -1.046571 -11.614263 -2.187861 -15.343202 12.062264 3.707631 -12.310179 -3.940428 -3.436315 -17.620174 16.674245 41.732526 1.390495 9.708699 1.375773 0.790080 0.176270 0.809040 18.470409 -8.000712 4.948734 -12.424679 9.096322 -43.618749 35.451295 -22.436347 40.781905 -1.825197 -9.449733 1.191046 -0.135670 -0.221650 0.526210 -3.703693 -3.512377 -9.207148 24.324088 -8.241397 30.977676 -0.244897 -4.397842 10.597670 3.544006 -1.890725 -16.530978 -9.072511 4.399696 55.257640 -6.478100 4.850750 -3.474950 -6.129330 -15.976141 10.739125 -12.776732 5.140443 -1.795313 -143.912686 -54.513717 100.711082 -3.294453 3.938063 0.685620 -0.098420 0.265780 0.207010 -0.641416 16.910529 9.692013 18.737148 -0.295026 -9.042546 132.440287 55.322887 79.181136 2.298129 -2.022784 0.209040 -0.352200 -0.355010 -0.301220 
0.895580 15.826630 -2.571500 -1.469465 -13.962828 -1.976351 -15.282205 11.957800 3.660323 -11.907636 -3.456933 -3.786023 -18.863960 17.202628 40.651429 1.429767 9.730701 1.392890 0.752400 0.135400 0.769330 18.531519 -8.098469 4.979434 -11.710082 10.104648 -43.534789 34.862411 -22.083778 41.258329 -1.777314 -9.478652 1.185716 -0.149510 -0.165410 0.546820 -3.906085 -3.101169 -9.133660 25.547126 -8.348261 30.809715 -2.506861 -3.991030 10.879074 3.916818 -2.764463 -15.887908 -10.349137 4.564652 51.513094 -7.474470 5.252880 -1.250010 -6.989271 -14.903174 10.380097 -15.036016 5.138599 -2.139379 -148.092819 -55.312670 107.729833 -3.388591 3.961962 0.599690 -0.033620 0.200950 0.208230 -0.574277 16.583697 9.301169 19.401614 0.515729 -9.089358 126.731486 56.657604 73.896445 2.340511 -2.041294 0.216900 -0.386050 -0.337300 -0.280480 
0.878210 15.882510 -2.525930 -2.116624 -16.363896 -1.315656 -15.210307 11.893079 3.595323 -10.642672 -3.154966 -4.879651 -19.902239 17.611004 39.594241 1.417997 9.711057 1.398413 0.695720 0.069720 0.718490 18.580215 -8.285343 4.981179 -10.464505 11.131110 -42.781874 34.078285 -21.119393 40.727155 -1.677098 -9.259932 1.255090 -0.178020 -0.110200 0.575200 -4.100616 -2.604695 -9.064877 25.781572 -7.755627 29.377814 -4.092290 -3.235452 11.502236 4.181523 -2.445796 -15.644924 -9.119254 4.398375 50.403090 -7.812680 6.378130 1.423460 -7.558806 -14.380765 10.469515 -19.003533 4.901539 -2.528678 -151.493578 -56.401154 113.715845 -3.482631 3.958105 0.544260 0.033700 0.147070 0.198280 -0.630751 15.948974 9.037134 22.951917 2.006754 -9.256060 113.523755 60.258461 63.438867 2.472904 -1.925559 0.213610 -0.421830 -0.298720 -0.274350 
0.835460 15.977930 -2.488110 -2.008645 -17.152125 -1.284027 -15.183052 11.900871 3.625428 -9.620889 -3.710623 -6.450847 -19.348061 17.981852 41.398443 1.508951 9.962651 1.363284 0.658430 0.033600 0.690880 18.564537 -8.502563 4.845095 -10.102333 10.674670 -40.695835 34.056834 -19.891255 38.245466 -1.540642 -8.819502 1.407325 -0.198560 -0.053380 0.573710 -4.106935 -2.328174 -9.046418 23.590258 -6.593121 27.908031 -3.844486 -2.613263 11.987924 4.026885 -1.251682 -15.543348 -6.232320 3.259689 50.272278 -8.033580 7.369330 4.859000 -7.354453 -13.998019 10.399670 -23.445022 3.690483 -3.146180 -150.283267 -58.085887 112.992160 -3.516008 3.943372 0.482320 0.092290 0.106180 0.227260 -0.631800 14.873569 9.122109 29.481458 3.487711 -9.066924 95.363436 64.253822 50.065236 2.607734 -1.904611 0.204770 -0.429060 -0.314040 -0.256150 
0.799710 16.101260 -2.434930 -2.109128 -18.071324 -0.629303 -15.107072 11.884397 3.584442 -8.627829 -3.977559 -8.242593 -17.322523 17.848485 43.712733 1.641813 10.085209 1.396933 0.593670 -0.015350 0.602810 18.602237 -8.790530 4.724052 -9.315135 10.454559 -39.090380 32.772521 -18.450392 36.476451 -1.336053 -8.386022 1.602627 -0.232370 0.043990 0.537210 -4.268736 -1.850722 -8.929943 22.541718 -5.587781 25.405011 -3.825308 -2.026582 11.863018 3.351384 -1.184688 -15.024209 -5.564600 2.836468 48.723716 -7.203880 7.360200 10.934230 -5.962145 -11.083489 9.987240 -30.098249 2.817455 -3.214045 -144.752248 -59.942515 106.733252 -3.546579 4.017676 0.328840 0.179210 -0.002580 0.279940 -0.737743 12.086341 8.444982 37.244303 4.772250 -8.747090 74.051412 65.528994 36.586102 2.436086 -2.251917 0.209350 -0.456440 -0.346960 -0.195500 
0.759700 16.243050 -2.365230 -1.707790 -18.470529 -0.058922 -15.074760 11.981832 3.601491 -7.773069 -4.390539 -10.036438 -14.816923 17.453762 46.500676 1.758630 10.235778 1.374492 0.515610 -0.086810 0.498910 18.583644 -9.058951 4.556060 -8.714390 9.777543 -37.531924 30.116434 -17.014593 35.453232 -1.143904 -7.920947 1.778557 -0.304470 0.111910 0.553910 -4.250261 -1.645391 -8.880803 20.005386 -4.328470 23.435410 -2.860181 -1.301393 9.960441 2.576547 -0.662429 -14.614898 -4.026231 2.469698 47.850244 -5.798730 7.048740 15.037530 -4.617007 -7.566097 9.657610 -38.605857 3.207035 -3.918364 -132.560829 -62.100288 92.736692 -3.553691 4.122348 0.240600 0.230720 -0.055460 0.304620 -0.637230 8.561602 7.552297 46.514377 4.302833 -10.391937 54.394576 62.440885 23.962135 2.252723 -2.455702 0.241910 -0.509470 -0.335240 -0.137050 
0.734060 16.387580 -2.286450 -1.606268 -18.025739 2.198198 -15.033917 11.936560 3.625277 -6.719025 -5.440344 -13.703337 -11.993126 16.789371 49.839610 1.806530 10.504826 1.346723 0.307680 -0.350610 0.373210 18.607857 -9.170592 4.540140 -9.255985 9.202923 -38.446241 28.534738 -16.609398 35.200663 -0.981479 -7.741495 1.876821 -0.455800 0.237770 0.537440 -4.321362 -1.420850 -8.895588 18.597570 -3.344098 19.750970 -2.395274 -0.751658 6.918089 2.058221 0.023073 -14.225715 -2.454109 1.553220 46.914089 -6.411210 7.393290 20.591180 -4.039188 -3.639206 9.252203 -45.444837 5.618835 -4.587353 -116.600932 -62.772114 75.523883 -3.627356 4.150185 0.197840 0.316090 -0.159700 0.279030 -0.405001 4.235834 6.980467 56.090726 1.531147 -13.105261 37.841347 59.396870 14.486063 2.174743 -2.402976 0.173360 -0.498580 -0.242210 -0.130430 
